<?xml version="1.0" encoding="utf-8" ?>
<svg baseProfile="full" height="300mm" version="1.1" viewBox="0,0,200,300" width="200mm" xmlns="http://www.w3.org/2000/svg" xmlns:ev="http://www.w3.org/2001/xml-events" xmlns:xlink="http://www.w3.org/1999/xlink"><defs /><rect fill="#222222" height="300" width="200" x="0" y="0" /><text fill="#FFFFFF" style="font-size:12px; font-family:Arial; font-weight:bold;" x="10" y="20">Avery Running</text><text fill="#FFFFFF" style="font-size:4px; font-family:Arial" x="10" y="280">ATHLETE</text><text fill="#FFFFFF" style="font-size:9px; font-family:Arial" x="10" y="290">Avery</text><text fill="#FFFFFF" style="font-size:4px; font-family:Arial" x="120" y="280">STATISTICS</text><text fill="#FFFFFF" style="font-size:3px; font-family:Arial" x="120" y="285">Number: 3</text><text fill="#FFFFFF" style="font-size:3px; font-family:Arial" x="120" y="290">Weekly: 1.0</text><text fill="#FFFFFF" style="font-size:3px; font-family:Arial" x="141" y="285">Total: 47.9 km</text><text fill="#FFFFFF" style="font-size:3px; font-family:Arial" x="141" y="290">Avg: 16.0 km</text><text fill="#FFFFFF" style="font-size:3px; font-family:Arial" x="167" y="285">Min: 11.9 km</text><text fill="#FFFFFF" style="font-size:3px; font-family:Arial" x="167" y="290">Max: 21.2 km</text><polyline fill="none" points="35.30767508561257,34.652631381788524 34.72081772063393,35.1486829254718 35.01424640300684,47.0918711819977 35.76411970274057,53.0442386076611 35.27507189870812,68.76411988653126 35.76411970274057,71.54936699435348 35.69891332893167,79.98128496084246 36.15535794617608,80.59173288624152 35.76411970274057,81.46924996373127 36.318373880931176,87.00137354922481 36.090151572367176,96.08150229911553 39.122247958090156,109.93016484603868 39.285263892728835,110.46426236606203 40.035137192578986,110.27351334283594 40.39377224899363,113.55438245204277 41.30666148336604,115.5 58.423334629042074,113.82142862089677 62.955177614465356,112.79139230618603 73.42080062336754,107.67931658466114 73.97505480144173,106.15330975261168 73.38819743646309,98.4850274239725 74.0728643622715,95.16586945563904 74.82273766200524,86.42908884829376 74.39889623178169,85.85680323690758 75.2465790923452,80.74434470568667 75.27918227924965,58.95835224664188 74.85534084890969,57.58476033154875 68.725941703422,56.66902947326889 49.9465060235234,57.54660492576659 45.87110765569378,56.821651444915915 39.80691488401499,57.58476033154875 37.329072676133364,57.31767240545014 36.15535794617608,57.62291573337279 34.32957947743125,60.44640423374949 35.01424640300684,60.90426514486899 35.53589739429299,65.10129633254837 34.91643684229348,67.61949153343448 35.07945277693216,69.946898690745 35.9923420115374,72.04536764125805 35.209865524899215,75.47919951239601 36.35097706783563,90.77842973833322 36.28577069402672,96.34856143945944 38.66580334084574,108.40416756217019 40.88282005302608,115.11850719244103 60.901176836923696,113.17288758140057 73.06216556706931,107.67931658466114 73.94245161453728,105.12325148141827 73.25778468872886,98.56132954586064 73.87724524061196,97.60755185881862 74.65972172736656,85.51343143286067 75.14876953151543,83.87287273386028 75.11616634461097,71.66382874289411 75.50740458781365,70.90074973172159 75.14876953151543,67.27610231706058 75.67042052256875,66.13146922786837 75.0183567837812,58.65311005222611 75.60521414864343,53.76919970399467 75.34438865317497,46.0998003645509 74.72492810117546,42.66568793647457 74.92054722283501,35.03420955303591 74.36629304487724,34.5 54.869587252265774,35.110525138734374 50.82679207099136,34.72894704854116 48.38155305024702,34.88157833312289 47.0774255724391,35.568418312526774 41.30666148336604,34.88157833312289 39.122247958090156,35.22499848686857 36.187961133080535,34.5" stroke="#4dd2ff" stroke-linecap="round" stroke-linejoin="round" stroke-width="0.5"><title>2019-08-12 11.9km</title></polyline><polyline fill="none" points="124.76296070951503,35.68233466081438 124.24155551067088,36.40698946575867 124.07861638569739,41.517671334033366 124.53484593506437,56.04839211230865 125.08883895899635,57.383205766789615 124.50225810997654,61.46389105427079 124.73037288466003,79.38784788214252 125.51248068339191,87.35800119853229 124.99107548419852,89.41724653643905 125.38212938350625,94.79410931220627 125.87094675772823,99.56076438853052 128.96679012745153,112.90706242475426 130.3354787750868,115.42373739712639 150.27922764094546,113.47903555602534 154.05941533437,112.10629851231351 162.72777676966507,107.56860265729483 163.44470891845413,105.31879944412503 162.76036459463648,98.72183767746901 163.60764804319479,96.92957860033493 164.5201071415795,86.55718038155464 163.9987019423861,85.98516442024265 164.71563409129158,83.88776477478677 164.748221916263,73.0573609607527 165.43256624008063,69.01494351870497 165.23703929036856,59.55703453664319 164.12905324227177,52.53971543669468 164.97633669083007,49.069142854743404 165.0741001656279,45.78923027162091 165.88879578921478,45.63667546943179 165.04151234065648,44.835761695954716 165.9213836143026,44.14926275511971 165.9539714390412,43.386484616290545 164.58528279140592,35.49163578511798 163.15141849394422,34.8051189944963 140.1770019083051,34.538139888463775 135.32141599152237,35.26279700064333 129.91183705080766,34.72883927018847 128.8690266526537,35.14837755379267 128.0217432040954,34.5 124.56743375991937,35.37721641114331 124.11120421078522,37.551178287831135 124.24155551067088,47.314774731348734 125.12142678396776,51.815093160257675 124.43708246003371,57.078105939901434 125.18660243379418,58.9087010162184 124.37190681032371,60.85369806922972 124.79554853460286,61.73085015945253 124.27414333540946,67.48949116023141 124.86072418454569,72.02769290839205 125.08883895899635,83.5826874434133 124.27414333540946,86.55718038155464 125.05625113402493,87.1673297372181 124.79554853460286,89.26471024926286 125.57765633321833,92.69676105777035 125.31695373367984,96.66264563298319 126.0012980576139,100.78101792835514 128.38020927843172,111.15300581531483 130.0421883505769,114.0128763243847 130.20512747520115,115.5 148.84536334336735,113.93661340599647 154.38529358396772,111.99190352213918 162.66260111983865,107.94992384058423 163.3795332685113,105.96704927124665 162.8255402444629,98.60743842888041 164.61787061649375,84.45978407358052 164.5201071415795,75.23109494143864 165.1392758154543,71.18870194422198 165.0741001656279,61.0825205600122 164.38975584169384,58.145954200823326 165.0741001656279,45.52225932542933 164.35716801695526,43.081372907501645 164.65045844134875,36.40698946575867 164.2268167170696,35.22465718910098 139.81853583396878,34.61441965337144 126.55529108154587,35.0339580704167 124.79554853460286,35.75861418279237 124.20896768558305,36.75024649492116 124.0460285609588,39.22931530405185 124.27414333540946,55.323776909703156 124.89331200928427,59.74772064370336 124.24155551067088,62.150356924074 124.89331200928427,76.79464985223603 124.17637986061163,79.50225324681378 125.05625113402493,82.78185821665102" stroke="#4dd2ff" stroke-linecap="round" stroke-linejoin="round" stroke-width="0.5"><title>2019-08-31 14.8km</title></polyline><polyline fill="none" points="57.88856655638665,201.39577122982882 57.86924504104536,192.60570888496295 57.579422309529036,192.1860743377474 47.28105458675418,192.23024643164536 46.41158639243804,205.393150064745 46.37294336152263,215.81692515395116 46.855981247266755,218.1136252535798 48.1118797500385,221.1169674921548 51.203322218498215,225.26858150333283 60.41968507738784,233.4832551547588 63.16334026819095,235.1173217101168 64.67041847156361,235.64728673381614 76.34061378985643,238.0762773767201 80.7652408228023,238.38541978957073 83.97261238377541,237.4579912973859 84.41700723860413,235.31605873786611 84.20447056891862,232.33498518381384 80.32084596797358,230.56840473777265 79.37409171205945,229.46428502787603 80.6879547610879,226.10772836788965 82.05978235637303,223.61236154814833 83.97261238377541,217.87070614189724 84.66818693920504,214.6464825734438 84.66818693920504,209.67755583667895 83.25771631288808,208.86043309836532 82.25299751071725,208.8383486594248 80.8811699153157,208.17581450098078 81.17099264683202,206.47530137099966 82.46553418040276,203.73678610194474 81.19031416217331,205.96735343671753 79.64459292800166,211.62097115487268 78.36937290977221,219.57113450298493 76.10875560471322,224.53984620125266 75.78028984251432,226.24022495966346 74.65964194771368,229.00055315978534 72.804776466568,237.74505289927765 70.13840733759571,247.57117507215298 67.7232179089915,253.7978474444244 63.10537572193425,261.23871941493417 62.69962389790453,262.58555760960735 62.46776571276132,265.5 63.27926936070435,261.39327502038213 67.2015369925648,255.07848953887878 71.00787553179543,245.84887406068447 74.04135345388204,232.4453960085375 75.5097886264557,228.20558205489942 76.37925682065543,228.0730866020749 81.49945840903092,231.45169666690344 83.95329086843412,232.33498518381384 83.97261238377541,237.2371744352713 81.84724568668753,238.16460382303922 80.82320536917541,238.2970934285404 75.3745380184846,237.85546111174335 67.3367876005359,236.19933232733456 64.28398816299159,235.42646812311432 61.6949050957337,234.23404394107638 60.03325476893224,233.01953143754508 53.40597497718409,226.81437597023614 51.647717073210515,225.59982405458868 49.71556553058326,223.54611250040762 48.1312012654962,220.96238466366776 46.74005215463694,217.87070614189724 45.79329789872281,212.37183173908852 41.755101174348965,211.62097115487268 38.953481437289156,212.04057002070476 36.36439837003127,211.17928730616404 33.67870772560127,211.48846608989697 33.060419231886044,211.28970834836946 26.16263822419569,203.14049213686667 25.67960033856798,202.34543109680817 25.331813060794957,200.15899897566123 25.814850946422666,198.34799895710603 26.87753429496661,196.22778557837592 26.413817924796604,192.42902074851736 30.200834948569536,191.78852510853903 33.92988742608577,189.1602655819588 34.876641682116315,187.9896864831244 35.08917835180182,185.5380768643663 35.57221623742953,184.56626036619127 38.721623252145946,184.5 41.11749116529245,184.83130163927854 41.13681268063374,186.6865819425002 40.82766843389254,187.57004345919995 39.35923326143529,189.62407828317373 34.60614046617411,192.82656886347104 33.17634832451586,195.16767151281238 33.13770529360045,197.3762369335309 35.24375047523063,202.78713201606297 36.03593260771595,203.75887103370042 37.81351202703081,205.03979342656385 39.37855477666017,205.41523483653145 45.32958152843639,204.92936936509795 46.23769275366794,204.55392715705966 46.74005215463694,200.51236315981077 46.70140912383795,197.95046044685296 47.049196401494555,196.7799263732595 47.28105458675418,192.49527881570975 47.551555802696384,192.1860743377474 54.54594438744243,192.1419022353657 57.52145776338875,192.56153686367907 57.83060201012995,193.88669378905615 57.83060201012995,196.49281332643295 57.579422309529036,196.93452555683325 57.86924504104536,200.75530071939284" stroke="#ff0000" stroke-linecap="round" stroke-linejoin="round" stroke-width="0.5"><title>2019-11-24 21.2km</title></polyline></svg>